<?xml version="1.0" standalone="no"?>
<!DOCTYPE svg PUBLIC "-//W3C//DTD SVG 20010904//EN"
 "http://www.w3.org/TR/2001/REC-SVG-20010904/DTD/svg10.dtd">
<svg version="1.0" xmlns="http://www.w3.org/2000/svg"
 width="167.000000pt" height="167.000000pt" viewBox="0 0 167.000000 167.000000"
 preserveAspectRatio="xMidYMid meet">
<metadata>
Created by potrace 1.14, written by Peter Selinger 2001-2017
</metadata>
<g transform="translate(0.000000,167.000000) scale(0.100000,-0.100000)"
fill="#000000" stroke="none">
<path d="M616 1375 l-209 -205 12 -109 c21 -196 71 -340 141 -406 25 -24 40
-30 74 -29 39 1 106 29 106 45 0 4 -15 32 -34 63 -59 98 -70 241 -26 343 10
23 37 61 59 86 73 79 157 82 224 7 20 -21 41 -58 48 -82 17 -63 6 -181 -26
-268 -43 -120 -43 -110 6 -110 114 1 249 126 327 304 12 27 22 56 22 66 0 9
-26 41 -57 70 -32 30 -145 137 -251 239 -107 102 -197 187 -200 188 -4 1 -101
-90 -216 -202z"/>
<path d="M814 1048 c-22 -34 -27 -55 -28 -109 0 -64 25 -149 45 -149 13 0 50
122 55 185 6 66 -7 115 -31 115 -8 0 -27 -19 -41 -42z"/>
<path d="M201 974 c-119 -127 -164 -251 -142 -385 47 -287 343 -418 607 -269
31 17 57 30 59 28 7 -7 -25 -82 -51 -119 -15 -22 -50 -60 -77 -85 l-49 -44
281 0 282 0 -59 58 c-56 54 -112 143 -112 177 0 11 12 8 54 -15 88 -47 157
-63 256 -58 69 3 98 10 143 31 73 36 140 105 180 186 30 61 32 72 32 172 0
103 -1 108 -38 181 -21 41 -56 92 -77 113 l-39 38 -11 -27 c-25 -66 -100 -176
-165 -242 -111 -112 -235 -158 -357 -134 l-59 11 -50 -36 c-164 -121 -331 -71
-429 128 -43 87 -77 205 -87 300 -3 32 -9 60 -13 62 -5 3 -40 -29 -79 -71z"/>
</g>
</svg>
